Simulation
nRows=16
nColumns=15
endheader
time  TH_x TH_y TH_z SC_y  SC_z  SC_x  AC_y  AC_z  AC_x  GH_y  GH_z  GH_yy  EL_x  PS_y
0.595  0.000000  0.000000  0.000000  -38.989375552301155  3.8092949091536665  5.315334698753305  56.080438164325386  7.666688972213394  -6.058054866884838  -4.439453476184552  36.12757001071952  7.59459527528935  24.346099972085774  0.000000
0.6069  0.000000  0.000000  0.000000  -39.11032348763638  3.8760814021938446  5.474444248050282  56.16705229763796  7.919193194700377  -6.026239215867542  -4.021195124154733  36.90642670571278  6.930093368915364  24.199236557928764  0.000000
0.6187999999999999  0.000000  0.000000  0.000000  -39.235043410275374  3.9483035150931576  5.635588465984974  56.25754419711104  8.1761309710067  -5.985169337869695  -3.5990936372360394  37.660598483322325  6.289678523619277  24.045502224011425  0.000000
0.6306999999999999  0.000000  0.000000  0.000000  -39.363571067518926  4.02587290513216  5.798225841044067  56.35091808370248  8.43663952105883  -5.934645420636694  -3.175240321096025  38.389798307198205  5.675132138539718  23.885959392730143  0.000000
0.6426  0.000000  0.000000  0.000000  -39.49560469109087  4.108642383750393  5.962265625915601  56.446762485966296  8.700878965651  -5.875286512509155  -2.752137181012411  39.09259020471926  5.088618668530246  23.72113225642255  0.000000
0.6545  0.000000  0.000000  0.000000  -39.63068267061985  4.196390710456682  6.1270632118514845  56.54444089667649  8.967876830671871  -5.807843777663264  -2.3322908179294966  39.76952908106652  4.531249254620897  23.55173911880799  0.000000
0.6664  0.000000  0.000000  0.000000  -39.76970885888049  4.289014624285193  6.293256471989845  56.643780191168936  9.237228573776136  -5.7320753263415325  -1.9179386187953258  40.41977826309991  4.004723759375159  23.378363701262227  0.000000
0.6782999999999999  0.000000  0.000000  0.000000  -39.91289458539963  4.386649643436603  6.460422259849642  56.74465193889363  9.50751612835568  -5.648152558911236  -1.5112909290162966  41.04443673934527  3.5093357846833197  23.20183714721788  0.000000
0.6901999999999999  0.000000  0.000000  0.000000  -40.06106575168693  4.489228977936723  6.629023423815711  56.84690513879413  9.778918435283774  -5.555742493140368  -1.1142832552988096  41.642491087742584  3.0463676745345025  23.022977216016475  0.000000
0.7021  0.000000  0.000000  0.000000  -40.214196884851475  4.596628132686726  6.798359424960257  56.9502159419767  10.050298525431762  -5.455212562490158  -0.7289080990178984  42.21526754823467  2.6155776778805624  22.84275341026807  0.000000
0.714  0.000000  0.000000  0.000000  -40.37293904631101  4.708510265587655  6.96876340969894  57.054298874375235  10.322399394698143  -5.346442180047415  -0.35681335710159784  42.76140052095968  2.21790506005747  22.66203733155024  0.000000
0.7259  0.000000  0.000000  0.000000  -40.53691783845029  4.824524682407177  7.13929453417911  57.158641460442865  10.594222550602346  -5.230193273686771  0.00025888497904380547  43.282352918342546  1.8524818576089328  22.48190799640015  0.000000
0.7377999999999999  0.000000  0.000000  0.000000  -40.70670887319503  4.944163042966982  7.3103781206365355  57.26282210810737  10.866931334029482  -5.10637732849543  0.34108872959599507  43.77638654860856  1.5200457931627116  22.303291310372938  0.000000
0.7496999999999999  0.000000  0.000000  0.000000  -40.88177507494274  5.067134825729999  7.480714731782556  57.36655098085642  11.139691893421013  -4.975769899435943  0.6642516924229481  44.245264697008835  1.2189570050222993  22.12730972470775  0.000000
0.7615999999999999  0.000000  0.000000  0.000000  -41.06293768620421  5.193095994804922  7.650678213244641  57.46954321457454  11.414197279159158  -4.8375865281361445  0.9690555780844508  44.68695550223905  0.9498779050659165  21.954871417011805  0.000000
0.7735  0.000000  0.000000  0.000000  -41.24984676290784  5.322156283775479  7.818020427259662  57.57195771489494  11.690074643644913  -4.691860790401881  1.2545016171529597  45.10355266088726  0.7103204104619502  21.787043593252175  0.000000
